PathFileType	4	(X/Y/Z)	RBDS021\RBDS021runT35.trc
DataRate	CameraRate	NumFrames	NumMarkers	Units	OrigDataRate	OrigDataStartFrame	OrigNumFrames
150.000000	150.000000	6	33	mm	150.000000	3937	4500
Frame#	Time	L.ASIS			L.Heel.Bottom			L.Heel.Lateral			L.Heel.Top			L.Iliac.Crest			L.MT1			L.MT5			L.PSIS			L.Shank.Bottom.Lateral			L.Shank.Bottom.Medial			L.Shank.Top.Lateral			L.Shank.Top.Medial			L.Thigh.Bottom.Lateral			L.Thigh.Bottom.Medial			L.Thigh.Top.Lateral			L.Thigh.Top.Medial			R.ASIS			R.ASY			R.Heel.Bottom			R.Heel.Lateral			R.Heel.Top			R.Iliac.Crest			R.MT1			R.MT5			R.PSIS			R.Shank.Bottom.Lateral			R.Shank.Bottom.Medial			R.Shank.Top.Lateral			R.Shank.Top.Medial			R.Thigh.Bottom.Lateral			R.Thigh.Bottom.Medial			R.Thigh.Top.Lateral			R.Thigh.Top.Medial			
		X1	Y1	Z1	X2	Y2	Z2	X3	Y3	Z3	X4	Y4	Z4	X5	Y5	Z5	X6	Y6	Z6	X7	Y7	Z7	X8	Y8	Z8	X9	Y9	Z9	X10	Y10	Z10	X11	Y11	Z11	X12	Y12	Z12	X13	Y13	Z13	X14	Y14	Z14	X15	Y15	Z15	X16	Y16	Z16	X17	Y17	Z17	X18	Y18	Z18	X19	Y19	Z19	X20	Y20	Z20	X21	Y21	Z21	X22	Y22	Z22	X23	Y23	Z23	X24	Y24	Z24	X25	Y25	Z25	X26	Y26	Z26	X27	Y27	Z27	X28	Y28	Z28	X29	Y29	Z29	X30	Y30	Z30	X31	Y31	Z31	X32	Y32	Z32	X33	Y33	Z33	

3938	26.24666666666667	2061.131015639884	939.7228325673705	884.165200925699	1638.439971776784	73.63688344759949	1014.686622859159	1657.575616450811	83.2978889167601	961.2913063059538	1657.363865402826	116.3919003698086	1005.28812486722	2001.110787173372	1021.134513553882	833.2204302045903	1849.506133301119	40.58984642862558	998.3619552524057	1788.589120887533	36.64011300495413	899.6780178655746	1885.542285056066	995.7586393314975	954.5991342131222	1758.647544961039	184.2536860468787	915.4353828140319	1730.486059158582	213.3978044861098	953.7284731409594	1792.385911591318	252.499811657469	889.4904784577959	1765.296499791583	281.5952907679527	926.2880095082361	1954.785585783124	587.5556846411116	824.7260769767413	1890.947490819497	595.9153081903423	856.097184648105	1954.722757602109	695.6313786614935	801.9033298063425	1894.34547779268	704.0520805237047	833.5089073355634	2059.39009435498	931.4769530016532	1103.09458661081	1897.929500907742	255.0546545307378	1069.925904716049	1774.762008522257	386.8552819060956	1022.825426180834	1796.29269271549	376.7122098657131	1073.052646387208	1817.247380382356	400.232670543694	1028.778660400238	1999.359012927533	1003.272880865203	1150.226461039413	1884.190302762303	203.6868650881641	1021.596900442399	1851.641396994763	233.5473114813226	1125.889277706244	1883.504900893685	989.35199212874	1034.409640376128	1923.32669920321	408.5239155217843	1098.180254617326	1917.36202520643	434.2798213194778	1054.257460588676	1995.147017196399	451.1384298599852	1112.33288897308	1983.308099550769	478.5295798267078	1068.18711928648	2149.738719565141	637.3258592454225	1150.933057771017	2099.881805254223	596.7099511660427	1115.711778218244	2073.700115383869	715.3468724612444	1163.209630134148	2026.088151647181	675.5356728715094	1130.882606210386	
3939	26.25333333333333	2063.210310966848	941.7910051620689	884.794751064118	1617.61362934442	81.42340352247921	1013.215032000591	1637.139929684041	89.54653473029038	959.714959024666	1638.028201553534	123.2230042864126	1003.227574605255	2005.21464992543	1023.807844817774	833.2911404637539	1826.176129506392	40.57659539605258	998.2026545640473	1765.677313232515	37.02327370815109	899.341516669082	1887.358415405747	999.0942970496636	952.64220199046	1739.194881420588	189.6345951824727	914.0845113685648	1711.652445999352	218.5778081285909	952.8505414298432	1773.534981091697	257.7773978830764	888.6269977746431	1746.862076792602	286.7463427654595	925.8228343499193	1944.458870060833	590.2151622193945	825.5201168196423	1880.959224945359	601.0982853430394	856.8287870016104	1948.640048441826	698.1443947143988	802.5265419547203	1888.542063025246	708.9350281993941	834.0419442879596	2059.694382816287	937.0503587457831	1103.748194650176	1925.076127713483	244.6813126869103	1070.153296231238	1792.473718237469	366.5548687888157	1022.439173224451	1814.509268392084	358.0617504502426	1072.804519428845	1833.698460772193	383.2127848603813	1028.628412194346	1998.077200843843	1008.452244260802	1150.88525487368	1915.444932521473	192.500244255697	1021.947306625715	1880.276570024993	219.5746944310092	1125.89714126173	1884.373935291683	993.9178573405657	1032.846665869471	1939.263785410868	398.8819700903327	1097.927255528508	1931.147039030748	424.6835979690473	1054.309453262941	2007.667727013494	446.6440672124288	1112.219581175551	1993.518510300914	473.6329306176793	1068.481195820918	2155.669093031066	648.0048286474686	1149.662742527848	2106.66965645008	606.047094889859	1114.89602154802	2077.624497355163	723.9483677629171	1162.801762030567	2030.875450177406	682.8547991558821	1131.036250604784	
3940	26.26	2065.505061561068	944.1915548992752	885.2838187439737	1597.825074755888	90.25895495174517	1011.338405142419	1617.762549759309	96.65834435399024	957.7621619632631	1619.903332108082	130.8813024509497	1000.730191809626	2009.911820912741	1026.434931155139	833.4451653225221	1803.27520678405	40.57083671893619	997.9191206267626	1743.220307875225	37.53699530560339	898.807854772323	1889.567787689561	1002.760802103288	950.811584160402	1720.675248035606	195.5510051036368	912.3951875084919	1693.676863125253	224.1199313380143	951.6868701668905	1755.423607089931	263.7210837877098	887.5516471400267	1729.074057321953	292.3991188320513	925.1818758402247	1934.389915289069	593.6236833886754	826.5139510153659	1871.458404770197	607.1157455464909	857.9234648759812	1942.86985695922	701.1887843420578	803.2356912200854	1883.24387588343	714.422206345067	834.7719983562243	2060.507999369701	942.7395853320792	1104.112063903169	1952.835562532433	234.5389412592066	1070.5360931465	1811.601835607421	345.5429642907193	1021.182657127885	1833.837958299821	338.9033235093331	1071.802719071394	1851.291928886081	365.4082949213419	1027.691198965298	1997.571784237888	1013.839167075512	1151.494019312665	1947.581461188375	181.7089997522566	1022.704824759072	1909.576528782806	206.1016729624495	1125.99935171394	1885.68710389856	998.786957960359	1031.435738836466	1955.513699637489	388.7756863923647	1097.288266716212	1945.396219088925	414.3103131823781	1053.862806734228	2020.026988114435	441.58296380488	1111.807525834844	2003.744510912835	467.8298618122627	1068.3517488117	2160.81300642596	658.4475298446949	1148.448001209244	2112.480770896659	615.3239951324897	1114.258953601191	2081.15452327579	732.6199291776369	1162.415126031174	2035.123080707972	690.4526002557498	1131.234922070761	
3941	26.26666666666667	2067.960631247468	946.8326322534969	885.6278533177223	1579.212289862293	100.154742418773	1009.038791402368	1599.564813098332	104.6627176963877	955.4226609277858	1603.109292187011	139.3706598123389	997.8005492767121	2015.155140302744	1029.00963338652	833.6982420217588	1780.888879002494	40.62748551632446	997.4835001103494	1721.308516883028	38.28531829317122	898.0632026125597	1892.125906410971	1006.735366895194	949.1120273652516	1703.218598314907	201.935817093293	910.3655836462945	1676.667841599365	229.9824332583281	950.2139943948599	1738.202166973704	270.2551057477518	886.2609924644701	1712.066392441332	298.5003552743729	924.3349219537333	1924.685876397424	597.7620343702301	827.6797164320564	1862.537612774915	613.921056970677	859.3183631070859	1937.490703198031	704.7417361810235	803.9991355022718	1878.519204044206	720.4675791022308	835.6376354272285	2061.757889721407	948.4216128607276	1104.208298770615	1981.117528703734	224.7253198046342	1071.06549700421	1832.207878401313	324.1316575232267	1019.233121686632	1854.325455962652	319.4613611943553	1070.199685168166	1870.11166585603	347.0797223324815	1026.121188195566	1997.713460626401	1019.376353989148	1152.035916085233	1980.451038337359	171.4810944300238	1023.822903187839	1939.427650219185	193.2185293537807	1126.218901650439	1887.407874036214	1003.887908108823	1030.165172967304	1972.136754769174	378.3042645496312	1096.339621583224	1960.223611233971	403.2592642299338	1052.975372085362	2032.337771917099	435.9502557520983	1111.126837368955	2014.161068979948	461.1237145590713	1067.801580632332	2165.195727176799	668.3963210525042	1147.290327819184	2117.32413167798	624.2750078282061	1113.805126513751	2084.292856021756	741.1364366215297	1162.020064429606	2038.81113324494	698.0964355347556	1131.445631141172	
3942	26.27333333333333	2070.519308143413	949.6156868415412	885.8376809155382	1561.862869782884	111.0886165001497	1006.32341111246	1582.618422101074	113.5722899617984	952.7126170671867	1587.704119008533	148.676202886958	994.4782649189162	2020.877125009575	1031.541999732014	834.0640159074643	1759.086739097602	40.84196182491365	996.8849839142961	1700.027670109195	39.40941203467146	897.1143728974774	1894.972219904671	1010.970600632111	947.5314727967215	1686.921212429104	208.7178559442919	908.0301528402388	1660.699825938137	236.13693672163	948.4329341354075	1722.003019255813	277.2869899217826	884.7743468573952	1695.957516054219	304.9961690625261	923.2650413364223	1915.46024252538	602.571050358226	828.9840438737134	1854.282044182636	621.4233635845717	860.9331912417149	1932.580478528062	708.7491984953845	804.7871259749287	1874.423021619483	726.99073282615	836.5679901787346	2063.351393662205	953.9937778086196	1104.073735280519	2009.802359585377	215.3314877864375	1071.719564709901	1854.279052922245	302.6218250357011	1016.803981209552	1875.969056296381	299.9557748084372	1068.179084908661	1890.173918878361	328.4854474583329	1024.104539277527	1998.354788592825	1025.002579122467	1152.473722944319	2013.857759471106	161.964253370737	1025.228190009619	1969.705956391891	181.0020169809468	1126.562998268814	1889.480151570514	1009.12981396212	1029.006562619471	1989.159953928576	367.5664441427527	1095.178086760065	1975.69361726591	391.6523903004364	1051.739541641424	2044.693072817278	429.7522795436059	1110.235829524596	2024.908249996998	453.5540373486423	1066.875716052116	2168.833530688308	677.6014846802047	1146.188740375722	2121.212523997744	632.6473856357657	1113.520553218788	2087.031447083446	749.2681219121824	1161.586166203847	2041.92071967755	705.5515465361631	1131.624366758178	
3943	26.28	2073.122680152765	952.4478374428461	885.936805450659	1545.800350128803	123.0065549487039	1003.225219241618	1566.933843427291	123.3803261135151	949.6737246422914	1573.671194692211	158.7666389954746	990.8343521332278	2026.984155458016	1034.054456189295	834.5544758888431	1737.915722216075	41.35183068548582	996.1327997752842	1679.451799712946	41.07840459760129	895.9887143250875	1898.032557917914	1015.394952047124	946.0468061053083	1671.835405116383	215.8322790033422	905.456248148593	1645.806906470255	242.577413720054	946.3687905293137	1706.931255663921	284.7172035095481	883.1311522048615	1680.845251645723	311.8404163273182	921.9701636506428	1906.836348262592	607.9498318917326	830.387905910616	1846.771655682478	629.4852102420762	862.6707347943243	1928.21884348039	713.1260697402647	805.5727428281166	1870.997544417332	733.8760111588696	837.4834735153092	2065.185140699949	959.3737727010631	1103.755623964396	2038.74569612597	206.4435698882115	1072.465168291288	1877.725179097438	281.2929239628031	1014.131522683517	1898.714944019374	280.5976276822342	1065.944374566899	1911.421952559658	309.8726250018976	1021.846613609425	1999.347300598109	1030.651612768492	1152.75660619709	2047.566112781254	153.2831827739274	1026.824905979388	2000.284343446431	169.5204437378099	1127.024491183222	1891.829581896382	1014.404745068652	1027.922567302094	2006.57523714716	356.6584796919376	1093.91339743891	1991.814538477331	379.6296464577696	1050.276003086625	2057.158748247281	423.0077859798373	1109.217794091932	2036.078637114502	445.1946843385682	1065.660314296787	2171.734336733298	685.8317651628822	1145.144459048635	2124.162981577422	640.2115795797289	1113.376551357545	2089.353033544064	756.7899761506944	1161.088941142539	2044.435262025951	712.5900269873453	1131.723093301992	
